<svg width="25" height="25" viewBox="0 0 25 25" fill="none" xmlns="http://www.w3.org/2000/svg">
<path d="M10.8888 22.2862C11.4954 22.7867 12.128 23.2442 12.7757 23.6906C13.4248 23.2501 14.0543 22.7815 14.6626 22.2862C15.6767 21.4536 16.631 20.5508 17.5186 19.5844C19.5647 17.3471 21.7849 14.1038 21.7849 10.4631C21.7849 9.27998 21.5519 8.10845 21.0992 7.0154C20.6464 5.92235 19.9828 4.92918 19.1462 4.0926C18.3096 3.25602 17.3164 2.5924 16.2234 2.13964C15.1303 1.68689 13.9588 1.45386 12.7757 1.45386C11.5926 1.45386 10.4211 1.68689 9.32803 2.13964C8.23498 2.5924 7.24181 3.25602 6.40522 4.0926C5.56864 4.92918 4.90502 5.92235 4.45227 7.0154C3.99951 8.10845 3.76648 9.27998 3.76648 10.4631C3.76648 14.1038 5.98675 17.3461 8.03285 19.5844C8.92038 20.5511 9.8747 21.4532 10.8888 22.2862ZM12.7757 13.7164C11.9129 13.7164 11.0854 13.3737 10.4753 12.7635C9.86514 12.1534 9.52238 11.3259 9.52238 10.4631C9.52238 9.60025 9.86514 8.77275 10.4753 8.16263C11.0854 7.55251 11.9129 7.20975 12.7757 7.20975C13.6385 7.20975 14.466 7.55251 15.0762 8.16263C15.6863 8.77275 16.029 9.60025 16.029 10.4631C16.029 11.3259 15.6863 12.1534 15.0762 12.7635C14.466 13.3737 13.6385 13.7164 12.7757 13.7164Z" fill="white"/>
</svg>
