<svg width="21" height="20" viewBox="0 0 21 20" fill="none" xmlns="http://www.w3.org/2000/svg">
<path d="M10.5 3.125C10.0027 3.125 9.52581 3.32254 9.17418 3.67417C8.82255 4.02581 8.625 4.50272 8.625 5V11.2344L8.41688 11.4206C7.94509 11.8425 7.61254 12.3977 7.46322 13.0128C7.3139 13.6278 7.35485 14.2737 7.58066 14.865C7.80648 15.4562 8.2065 15.965 8.72779 16.3239C9.24909 16.6829 9.86709 16.875 10.5 16.875C11.1329 16.875 11.7509 16.6829 12.2722 16.3239C12.7935 15.965 13.1935 15.4562 13.4193 14.865C13.6452 14.2737 13.6861 13.6278 13.5368 13.0128C13.3875 12.3977 13.0549 11.8425 12.5831 11.4206L12.375 11.2344V5C12.375 4.50272 12.1775 4.02581 11.8258 3.67417C11.4742 3.32254 10.9973 3.125 10.5 3.125ZM7.375 5C7.375 4.1712 7.70424 3.37634 8.29029 2.79029C8.87634 2.20424 9.6712 1.875 10.5 1.875C11.3288 1.875 12.1237 2.20424 12.7097 2.79029C13.2958 3.37634 13.625 4.1712 13.625 5V10.6881C14.2279 11.3035 14.6357 12.0831 14.7973 12.9293C14.9589 13.7755 14.8671 14.6506 14.5334 15.4448C14.1996 16.2391 13.6389 16.9171 12.9213 17.3939C12.2038 17.8706 11.3615 18.125 10.5 18.125C9.63851 18.125 8.79619 17.8706 8.07867 17.3939C7.36115 16.9171 6.80036 16.2391 6.46662 15.4448C6.13289 14.6506 6.04106 13.7755 6.20266 12.9293C6.36426 12.0831 6.77208 11.3035 7.375 10.6881V5ZM9.875 7.5C9.875 7.33424 9.94085 7.17527 10.0581 7.05806C10.1753 6.94085 10.3342 6.875 10.5 6.875C10.6658 6.875 10.8247 6.94085 10.9419 7.05806C11.0592 7.17527 11.125 7.33424 11.125 7.5V11.9812C11.5422 12.1287 11.8938 12.4189 12.1177 12.8005C12.3416 13.1821 12.4234 13.6306 12.3486 14.0667C12.2738 14.5028 12.0473 14.8985 11.709 15.1837C11.3707 15.4689 10.9425 15.6253 10.5 15.6253C10.0575 15.6253 9.62931 15.4689 9.29102 15.1837C8.95273 14.8985 8.72617 14.5028 8.65137 14.0667C8.57657 13.6306 8.65836 13.1821 8.88228 12.8005C9.10619 12.4189 9.45782 12.1287 9.875 11.9812V7.5Z" fill="#FF8D8D"/>
</svg>
