<svg width="12" height="22" viewBox="0 0 12 22" fill="none" xmlns="http://www.w3.org/2000/svg">
<path d="M6 2.0625C5.35354 2.0625 4.73355 2.31931 4.27643 2.77643C3.81931 3.23355 3.5625 3.85353 3.5625 4.5V12.6047L3.29194 12.8468C2.67862 13.3953 2.2463 14.1171 2.05218 14.9166C1.85807 15.7162 1.91131 16.5558 2.20486 17.3245C2.49842 18.0931 3.01845 18.7545 3.69613 19.2211C4.37382 19.6877 5.17721 19.9376 6 19.9376C6.82279 19.9376 7.62619 19.6877 8.30387 19.2211C8.98156 18.7545 9.50159 18.0931 9.79514 17.3245C10.0887 16.5558 10.1419 15.7162 9.94782 14.9166C9.75371 14.1171 9.32138 13.3953 8.70806 12.8468L8.4375 12.6047V4.5C8.4375 3.85353 8.18069 3.23355 7.72357 2.77643C7.26646 2.31931 6.64647 2.0625 6 2.0625ZM1.9375 4.5C1.9375 3.42256 2.36551 2.38925 3.12738 1.62738C3.88925 0.865512 4.92256 0.4375 6 0.4375C7.07744 0.4375 8.11076 0.865512 8.87262 1.62738C9.63449 2.38925 10.0625 3.42256 10.0625 4.5V11.8946C10.8463 12.6945 11.3765 13.7081 11.5865 14.8081C11.7966 15.9082 11.6772 17.0458 11.2434 18.0783C10.8095 19.1108 10.0805 19.9922 9.14773 20.612C8.21495 21.2318 7.11994 21.5625 6 21.5625C4.88006 21.5625 3.78505 21.2318 2.85227 20.612C1.91949 19.9922 1.19047 19.1108 0.756612 18.0783C0.322756 17.0458 0.203382 15.9082 0.413458 14.8081C0.623534 13.7081 1.15371 12.6945 1.9375 11.8946V4.5ZM5.1875 7.75C5.1875 7.53451 5.27311 7.32785 5.42548 7.17548C5.57785 7.0231 5.78451 6.9375 6 6.9375C6.21549 6.9375 6.42215 7.0231 6.57453 7.17548C6.7269 7.32785 6.8125 7.53451 6.8125 7.75V13.5756C7.35484 13.7673 7.81195 14.1445 8.10304 14.6407C8.39414 15.1368 8.50046 15.7198 8.40322 16.2868C8.30599 16.8537 8.01145 17.368 7.57168 17.7388C7.13191 18.1095 6.57521 18.3129 6 18.3129C5.42479 18.3129 4.8681 18.1095 4.42833 17.7388C3.98855 17.368 3.69402 16.8537 3.59678 16.2868C3.49954 15.7198 3.60587 15.1368 3.89696 14.6407C4.18805 14.1445 4.64516 13.7673 5.1875 13.5756V7.75Z" fill="#FF8D8D"/>
</svg>
