<svg width="20" height="19" viewBox="0 0 20 19" fill="none" xmlns="http://www.w3.org/2000/svg">
<path fill-rule="evenodd" clip-rule="evenodd" d="M5.41667 3.95833C5.41667 3.42268 5.57551 2.89905 5.8731 2.45367C6.1707 2.00828 6.59368 1.66115 7.08857 1.45616C7.58345 1.25117 8.128 1.19754 8.65337 1.30204C9.17873 1.40654 9.66131 1.66449 10.0401 2.04325C10.4188 2.42202 10.6768 2.9046 10.7813 3.42996C10.8858 3.95533 10.8322 4.49989 10.6272 4.99477C10.4222 5.48965 10.0751 5.91264 9.62967 6.21023C9.18429 6.50783 8.66066 6.66667 8.125 6.66667H2.70833C2.54257 6.66667 2.3836 6.60082 2.26639 6.48361C2.14918 6.3664 2.08333 6.20743 2.08333 6.04167C2.08333 5.87591 2.14918 5.71694 2.26639 5.59973C2.3836 5.48252 2.54257 5.41667 2.70833 5.41667H8.125C8.41343 5.41667 8.69538 5.33114 8.93521 5.17089C9.17503 5.01065 9.36195 4.78289 9.47232 4.51641C9.5827 4.24994 9.61158 3.95672 9.55531 3.67383C9.49904 3.39094 9.36015 3.13109 9.1562 2.92714C8.95225 2.72319 8.6924 2.58429 8.40951 2.52802C8.12662 2.47175 7.8334 2.50063 7.56692 2.61101C7.30044 2.72139 7.07268 2.90831 6.91244 3.14813C6.7522 3.38795 6.66667 3.6699 6.66667 3.95833V4.25583C6.66667 4.42159 6.60082 4.58057 6.48361 4.69778C6.3664 4.81499 6.20743 4.88083 6.04167 4.88083C5.87591 4.88083 5.71694 4.81499 5.59972 4.69778C5.48251 4.58057 5.41667 4.42159 5.41667 4.25583V3.95833ZM12.0833 5.625C12.0833 4.92453 12.291 4.23978 12.6802 3.65736C13.0694 3.07493 13.6225 2.62099 14.2697 2.35293C14.9168 2.08487 15.6289 2.01473 16.3159 2.15139C17.003 2.28804 17.634 2.62535 18.1293 3.12066C18.6246 3.61598 18.962 4.24704 19.0986 4.93406C19.2353 5.62107 19.1651 6.33318 18.8971 6.98034C18.629 7.62749 18.1751 8.18063 17.5926 8.56979C17.0102 8.95895 16.3255 9.16667 15.625 9.16667H1.875C1.70924 9.16667 1.55027 9.10082 1.43306 8.98361C1.31585 8.8664 1.25 8.70743 1.25 8.54167C1.25 8.37591 1.31585 8.21694 1.43306 8.09973C1.55027 7.98252 1.70924 7.91667 1.875 7.91667H15.625C16.0782 7.91667 16.5213 7.78226 16.8982 7.53045C17.275 7.27864 17.5688 6.92073 17.7422 6.50198C17.9157 6.08324 17.9611 5.62246 17.8726 5.17792C17.7842 4.73338 17.5659 4.32504 17.2455 4.00455C16.925 3.68405 16.5166 3.46579 16.0721 3.37737C15.6275 3.28894 15.1668 3.33433 14.748 3.50778C14.3293 3.68123 13.9714 3.97496 13.7195 4.35182C13.4677 4.72868 13.3333 5.17175 13.3333 5.625V6.04167C13.3333 6.20743 13.2675 6.3664 13.1503 6.48361C13.0331 6.60082 12.8741 6.66667 12.7083 6.66667C12.5426 6.66667 12.3836 6.60082 12.2664 6.48361C12.1492 6.3664 12.0833 6.20743 12.0833 6.04167V5.625ZM2.91667 11.0417C2.91667 10.8759 2.98251 10.7169 3.09972 10.5997C3.21694 10.4825 3.37591 10.4167 3.54167 10.4167H15.625C16.3255 10.4167 17.0102 10.6244 17.5926 11.0135C18.1751 11.4027 18.629 11.9558 18.8971 12.603C19.1651 13.2502 19.2353 13.9623 19.0986 14.6493C18.962 15.3363 18.6246 15.9674 18.1293 16.4627C17.634 16.958 17.003 17.2953 16.3159 17.4319C15.6289 17.5686 14.9168 17.4985 14.2697 17.2304C13.6225 16.9623 13.0694 16.5084 12.6802 15.926C12.291 15.3436 12.0833 14.6588 12.0833 13.9583V13.5417C12.0833 13.3759 12.1492 13.2169 12.2664 13.0997C12.3836 12.9825 12.5426 12.9167 12.7083 12.9167C12.8741 12.9167 13.0331 12.9825 13.1503 13.0997C13.2675 13.2169 13.3333 13.3759 13.3333 13.5417V13.9583C13.3333 14.4116 13.4677 14.8547 13.7195 15.2315C13.9714 15.6084 14.3293 15.9021 14.748 16.0756C15.1668 16.249 15.6275 16.2944 16.0721 16.206C16.5166 16.1175 16.925 15.8993 17.2455 15.5788C17.5659 15.2583 17.7842 14.85 17.8726 14.4054C17.9611 13.9609 17.9157 13.5001 17.7422 13.0814C17.5688 12.6626 17.275 12.3047 16.8982 12.0529C16.5213 11.8011 16.0782 11.6667 15.625 11.6667H3.54167C3.37591 11.6667 3.21694 11.6008 3.09972 11.4836C2.98251 11.3664 2.91667 11.2074 2.91667 11.0417Z" fill="black"/>
</svg>
