<svg width="55" height="55" viewBox="0 0 55 55" fill="none" xmlns="http://www.w3.org/2000/svg">
<path d="M34.0956 8.52075C30.6121 8.5213 27.1975 9.49139 24.234 11.3224C21.2706 13.1535 18.8753 15.7732 17.3162 18.8883C16.0205 21.4709 15.3431 24.3194 15.3372 27.2088C15.3439 27.6478 15.1846 28.0732 14.8912 28.3998C14.5977 28.7264 14.1918 28.9302 13.7545 28.9704C13.5207 28.9871 13.286 28.9554 13.065 28.8773C12.8441 28.7992 12.6416 28.6763 12.4702 28.5163C12.2989 28.3564 12.1624 28.1628 12.0693 27.9478C11.9761 27.7327 11.9284 27.5007 11.929 27.2663C11.9273 24.8827 12.3115 22.5146 13.0665 20.2538C13.1162 20.1088 13.126 19.9531 13.0947 19.8031C13.0634 19.653 12.9922 19.5142 12.8886 19.4013C12.785 19.2883 12.6529 19.2054 12.5061 19.1612C12.3593 19.117 12.2034 19.1133 12.0547 19.1503C9.10185 19.8863 6.47959 21.5877 4.60432 23.9844C2.72905 26.3811 1.70828 29.3356 1.70413 32.3787C1.70413 39.8748 8.0414 46.0118 15.5503 46.0118H34.0828C36.6061 46.0091 39.1029 45.4975 41.424 44.5076C43.745 43.5177 45.8426 42.0699 47.5912 40.2507C49.3398 38.4315 50.7035 36.2783 51.6008 33.9199C52.4981 31.5616 52.9105 29.0464 52.8134 26.525C52.4257 16.5174 44.1095 8.52075 34.0956 8.52075Z" fill="#8DB2FF"/>
</svg>
