<svg width="19" height="18" viewBox="0 0 19 18" fill="none" xmlns="http://www.w3.org/2000/svg">
<g clip-path="url(#clip0_3_85)">
<path d="M9.39675 8.45639C8.94962 12.057 6.66587 12.6975 6.66587 15.2009C6.66587 16.7461 7.9635 18 9.5 18C11.0365 18 12.3332 16.7453 12.3332 15.2009C12.3332 12.6975 10.0495 12.057 9.60237 8.45639C9.58837 8.34877 9.41075 8.34877 9.39675 8.45639ZM4.14762 0.58139C3.7005 4.18201 1.41675 4.82164 1.41675 7.32589C1.41675 8.87027 2.7135 10.125 4.25 10.125C5.7865 10.125 7.08325 8.87027 7.08325 7.32589C7.08325 4.82252 4.7995 4.18201 4.35237 0.58139C4.33925 0.473765 4.16075 0.473765 4.14762 0.58139ZM14.6476 0.58139C14.2005 4.18201 11.9167 4.82252 11.9167 7.32589C11.9167 8.87027 13.2135 10.125 14.75 10.125C16.2865 10.125 17.5832 8.87027 17.5832 7.32589C17.5832 4.82252 15.2995 4.18201 14.8524 0.58139C14.8384 0.473765 14.6607 0.473765 14.6476 0.58139Z" fill="#8DB2FF"/>
</g>
<defs>
<clipPath id="clip0_3_85">
<rect width="17.5" height="17.5" fill="white" transform="translate(0.75 0.5)"/>
</clipPath>
</defs>
</svg>
