<svg width="21" height="20" viewBox="0 0 21 20" fill="none" xmlns="http://www.w3.org/2000/svg">
<path fill-rule="evenodd" clip-rule="evenodd" d="M5.91667 4.58333C5.91667 4.04768 6.07551 3.52405 6.3731 3.07867C6.6707 2.63328 7.09368 2.28615 7.58857 2.08116C8.08345 1.87617 8.628 1.82254 9.15337 1.92704C9.67873 2.03154 10.1613 2.28949 10.5401 2.66825C10.9188 3.04702 11.1768 3.5296 11.2813 4.05496C11.3858 4.58033 11.3322 5.12489 11.1272 5.61977C10.9222 6.11465 10.5751 6.53764 10.1297 6.83523C9.68429 7.13283 9.16066 7.29167 8.625 7.29167H3.20833C3.04257 7.29167 2.8836 7.22582 2.76639 7.10861C2.64918 6.9914 2.58333 6.83243 2.58333 6.66667C2.58333 6.50091 2.64918 6.34194 2.76639 6.22473C2.8836 6.10752 3.04257 6.04167 3.20833 6.04167H8.625C8.91343 6.04167 9.19538 5.95614 9.43521 5.79589C9.67503 5.63565 9.86195 5.40789 9.97232 5.14141C10.0827 4.87494 10.1116 4.58172 10.0553 4.29883C9.99904 4.01594 9.86015 3.75609 9.6562 3.55214C9.45225 3.34819 9.1924 3.20929 8.90951 3.15302C8.62662 3.09675 8.3334 3.12563 8.06692 3.23601C7.80044 3.34639 7.57268 3.53331 7.41244 3.77313C7.2522 4.01295 7.16667 4.2949 7.16667 4.58333V4.88083C7.16667 5.04659 7.10082 5.20557 6.98361 5.32278C6.8664 5.43999 6.70743 5.50583 6.54167 5.50583C6.37591 5.50583 6.21694 5.43999 6.09972 5.32278C5.98251 5.20557 5.91667 5.04659 5.91667 4.88083V4.58333ZM12.5833 6.25C12.5833 5.54953 12.791 4.86478 13.1802 4.28236C13.5694 3.69993 14.1225 3.24599 14.7697 2.97793C15.4168 2.70987 16.1289 2.63973 16.8159 2.77639C17.503 2.91304 18.134 3.25035 18.6293 3.74566C19.1246 4.24098 19.462 4.87204 19.5986 5.55906C19.7353 6.24607 19.6651 6.95818 19.3971 7.60534C19.129 8.25249 18.6751 8.80563 18.0926 9.19479C17.5102 9.58395 16.8255 9.79167 16.125 9.79167H2.375C2.20924 9.79167 2.05027 9.72582 1.93306 9.60861C1.81585 9.4914 1.75 9.33243 1.75 9.16667C1.75 9.00091 1.81585 8.84194 1.93306 8.72473C2.05027 8.60752 2.20924 8.54167 2.375 8.54167H16.125C16.5782 8.54167 17.0213 8.40726 17.3982 8.15545C17.775 7.90364 18.0688 7.54573 18.2422 7.12698C18.4157 6.70824 18.4611 6.24746 18.3726 5.80292C18.2842 5.35838 18.0659 4.95004 17.7455 4.62955C17.425 4.30905 17.0166 4.09079 16.5721 4.00237C16.1275 3.91394 15.6668 3.95933 15.248 4.13278C14.8293 4.30623 14.4714 4.59996 14.2195 4.97682C13.9677 5.35368 13.8333 5.79675 13.8333 6.25V6.66667C13.8333 6.83243 13.7675 6.9914 13.6503 7.10861C13.5331 7.22582 13.3741 7.29167 13.2083 7.29167C13.0426 7.29167 12.8836 7.22582 12.7664 7.10861C12.6492 6.9914 12.5833 6.83243 12.5833 6.66667V6.25ZM3.41667 11.6667C3.41667 11.5009 3.48251 11.3419 3.59972 11.2247C3.71694 11.1075 3.87591 11.0417 4.04167 11.0417H16.125C16.8255 11.0417 17.5102 11.2494 18.0926 11.6385C18.6751 12.0277 19.129 12.5808 19.3971 13.228C19.6651 13.8752 19.7353 14.5873 19.5986 15.2743C19.462 15.9613 19.1246 16.5924 18.6293 17.0877C18.134 17.583 17.503 17.9203 16.8159 18.0569C16.1289 18.1936 15.4168 18.1235 14.7697 17.8554C14.1225 17.5873 13.5694 17.1334 13.1802 16.551C12.791 15.9686 12.5833 15.2838 12.5833 14.5833V14.1667C12.5833 14.0009 12.6492 13.8419 12.7664 13.7247C12.8836 13.6075 13.0426 13.5417 13.2083 13.5417C13.3741 13.5417 13.5331 13.6075 13.6503 13.7247C13.7675 13.8419 13.8333 14.0009 13.8333 14.1667V14.5833C13.8333 15.0366 13.9677 15.4797 14.2195 15.8565C14.4714 16.2334 14.8293 16.5271 15.248 16.7006C15.6668 16.874 16.1275 16.9194 16.5721 16.831C17.0166 16.7425 17.425 16.5243 17.7455 16.2038C18.0659 15.8833 18.2842 15.475 18.3726 15.0304C18.4611 14.5859 18.4157 14.1251 18.2422 13.7064C18.0688 13.2876 17.775 12.9297 17.3982 12.6779C17.0213 12.4261 16.5782 12.2917 16.125 12.2917H4.04167C3.87591 12.2917 3.71694 12.2258 3.59972 12.1086C3.48251 11.9914 3.41667 11.8324 3.41667 11.6667Z" fill="black"/>
</svg>
