<svg width="18" height="18" viewBox="0 0 18 18" fill="none" xmlns="http://www.w3.org/2000/svg">
<g clip-path="url(#clip0_17_30)">
<path d="M8.64681 7.95645C8.19968 11.5571 5.91593 12.1976 5.91593 14.701C5.91593 16.2462 7.21356 17.5001 8.75006 17.5001C10.2866 17.5001 11.5833 16.2453 11.5833 14.701C11.5833 12.1976 9.29956 11.5571 8.85243 7.95645C8.83843 7.84883 8.66081 7.84883 8.64681 7.95645ZM3.39768 0.0814512C2.95056 3.68208 0.666809 4.3217 0.666809 6.82595C0.666809 8.37033 1.96356 9.62508 3.50006 9.62508C5.03656 9.62508 6.33331 8.37033 6.33331 6.82595C6.33331 4.32258 4.04956 3.68208 3.60243 0.0814512C3.58931 -0.0261738 3.41081 -0.0261738 3.39768 0.0814512ZM13.8977 0.0814512C13.4506 3.68208 11.1668 4.32258 11.1668 6.82595C11.1668 8.37033 12.4636 9.62508 14.0001 9.62508C15.5366 9.62508 16.8333 8.37033 16.8333 6.82595C16.8333 4.32258 14.5496 3.68208 14.1024 0.0814512C14.0884 -0.0261738 13.9108 -0.0261738 13.8977 0.0814512Z" fill="#8DB2FF"/>
</g>
<defs>
<clipPath id="clip0_17_30">
<rect width="17.5" height="17.5" fill="white"/>
</clipPath>
</defs>
</svg>
