<svg width="29" height="29" viewBox="0 0 29 29" fill="none" xmlns="http://www.w3.org/2000/svg">
<path d="M14.5 13.7569C13.5035 13.7569 12.65 13.4016 11.9395 12.6911C11.229 11.9806 10.8742 11.1275 10.875 10.1319C10.8758 9.13622 11.2306 8.28233 11.9395 7.57022C12.6484 6.8581 13.5019 6.50406 14.5 6.50809C15.498 6.51212 16.3515 6.86656 17.0604 7.57142C17.7693 8.27628 18.1242 9.13017 18.125 10.1331C18.1258 11.136 17.7709 11.9891 17.0604 12.6923C16.3499 13.3956 15.4964 13.7496 14.5 13.7569ZM6.04163 21.2401V20.5054C6.04163 20.0068 6.18663 19.5404 6.47663 19.1062C6.76743 18.6712 7.15813 18.3336 7.64871 18.0936C8.78938 17.5466 9.93085 17.1366 11.0731 16.8635C12.2146 16.5896 13.3569 16.4527 14.5 16.4527C15.643 16.4527 16.7857 16.5896 17.928 16.8635C19.0703 17.1374 20.2109 17.5474 21.35 18.0936C21.8414 18.3336 22.2321 18.6712 22.5221 19.1062C22.8129 19.5404 22.9583 20.0068 22.9583 20.5054V21.2401C22.9583 21.5945 22.8379 21.8926 22.597 22.1343C22.3561 22.3743 22.0581 22.4943 21.7028 22.4943H7.29829C6.94304 22.4943 6.64499 22.3739 6.40413 22.133C6.16327 21.8922 6.04243 21.5953 6.04163 21.2401ZM7.24996 21.286H21.75V20.5042C21.75 20.2368 21.6634 19.985 21.4902 19.749C21.3178 19.5138 21.0789 19.3148 20.7736 19.1521C19.7796 18.6704 18.7541 18.3014 17.6972 18.0453C16.6403 17.7891 15.5746 17.661 14.5 17.661C13.4253 17.661 12.3596 17.7891 11.3027 18.0453C10.2458 18.3014 9.22035 18.6704 8.22629 19.1521C7.92018 19.3148 7.68133 19.5138 7.50975 19.749C7.33656 19.985 7.24996 20.2372 7.24996 20.5054V21.286ZM14.5 12.5485C15.1645 12.5485 15.7337 12.3117 16.2073 11.838C16.681 11.3644 16.9174 10.7953 16.9166 10.1307C16.9158 9.46609 16.6794 8.89737 16.2073 8.42451C15.7353 7.95165 15.1662 7.71481 14.5 7.71401C13.8338 7.7132 13.265 7.95004 12.7938 8.42451C12.3225 8.89898 12.0857 9.4677 12.0833 10.1307C12.0809 10.7936 12.3177 11.3628 12.7938 11.838C13.2699 12.3133 13.8386 12.5498 14.5 12.5473" fill="#8B8F92"/>
</svg>
